<mxfile host="app.diagrams.net" modified="2021-12-14T21:49:55.037Z" agent="5.0 (Windows NT 10.0; Win64; x64) AppleWebKit/537.36 (KHTML, like Gecko) Chrome/96.0.4664.93 Safari/537.36" etag="qFTI5GDlEnlMBDO0hbto" version="15.9.6" type="github">
  <diagram id="prtHgNgQTEPvFCAcTncT" name="Page-1">
    <mxGraphModel dx="1865" dy="521" grid="1" gridSize="10" guides="1" tooltips="1" connect="1" arrows="1" fold="1" page="1" pageScale="1" pageWidth="827" pageHeight="1169" math="0" shadow="0">
      <root>
        <mxCell id="0" />
        <mxCell id="1" parent="0" />
        <mxCell id="K92P9nOB-8vSl3jlvbO0-9" style="edgeStyle=orthogonalEdgeStyle;rounded=0;orthogonalLoop=1;jettySize=auto;html=1;exitX=0.5;exitY=0;exitDx=0;exitDy=0;exitPerimeter=0;entryX=0.5;entryY=1;entryDx=0;entryDy=0;" edge="1" parent="1" source="K92P9nOB-8vSl3jlvbO0-1" target="K92P9nOB-8vSl3jlvbO0-3">
          <mxGeometry relative="1" as="geometry" />
        </mxCell>
        <mxCell id="K92P9nOB-8vSl3jlvbO0-1" value="" style="shape=cylinder3;whiteSpace=wrap;html=1;boundedLbl=1;backgroundOutline=1;size=15;" vertex="1" parent="1">
          <mxGeometry x="210" y="320" width="60" height="80" as="geometry" />
        </mxCell>
        <mxCell id="K92P9nOB-8vSl3jlvbO0-10" style="edgeStyle=orthogonalEdgeStyle;rounded=0;orthogonalLoop=1;jettySize=auto;html=1;exitX=0.5;exitY=0;exitDx=0;exitDy=0;exitPerimeter=0;entryX=0.558;entryY=1.007;entryDx=0;entryDy=0;entryPerimeter=0;" edge="1" parent="1" source="K92P9nOB-8vSl3jlvbO0-2" target="K92P9nOB-8vSl3jlvbO0-4">
          <mxGeometry relative="1" as="geometry" />
        </mxCell>
        <mxCell id="K92P9nOB-8vSl3jlvbO0-2" value="" style="shape=cylinder3;whiteSpace=wrap;html=1;boundedLbl=1;backgroundOutline=1;size=15;" vertex="1" parent="1">
          <mxGeometry x="617.5" y="320" width="60" height="80" as="geometry" />
        </mxCell>
        <mxCell id="K92P9nOB-8vSl3jlvbO0-3" value="" style="shape=hexagon;perimeter=hexagonPerimeter2;whiteSpace=wrap;html=1;fixedSize=1;" vertex="1" parent="1">
          <mxGeometry x="140" y="150" width="200" height="130" as="geometry" />
        </mxCell>
        <mxCell id="K92P9nOB-8vSl3jlvbO0-4" value="" style="shape=hexagon;perimeter=hexagonPerimeter2;whiteSpace=wrap;html=1;fixedSize=1;" vertex="1" parent="1">
          <mxGeometry x="540" y="145" width="190" height="140" as="geometry" />
        </mxCell>
        <mxCell id="K92P9nOB-8vSl3jlvbO0-5" value="WALLET- MICROSERVICE" style="text;html=1;strokeColor=none;fillColor=none;align=center;verticalAlign=middle;whiteSpace=wrap;rounded=0;" vertex="1" parent="1">
          <mxGeometry x="180" y="195" width="120" height="30" as="geometry" />
        </mxCell>
        <mxCell id="K92P9nOB-8vSl3jlvbO0-6" value="MOVEMENT- WALLET-MICROSERVICE" style="text;html=1;strokeColor=none;fillColor=none;align=center;verticalAlign=middle;whiteSpace=wrap;rounded=0;" vertex="1" parent="1">
          <mxGeometry x="592.5" y="182.5" width="85" height="55" as="geometry" />
        </mxCell>
        <mxCell id="K92P9nOB-8vSl3jlvbO0-7" value="BankWallet" style="text;html=1;strokeColor=none;fillColor=none;align=center;verticalAlign=middle;whiteSpace=wrap;rounded=0;" vertex="1" parent="1">
          <mxGeometry x="210" y="410" width="60" height="30" as="geometry" />
        </mxCell>
        <mxCell id="K92P9nOB-8vSl3jlvbO0-8" value="BankMovementWallet" style="text;html=1;strokeColor=none;fillColor=none;align=center;verticalAlign=middle;whiteSpace=wrap;rounded=0;" vertex="1" parent="1">
          <mxGeometry x="617.5" y="410" width="60" height="30" as="geometry" />
        </mxCell>
        <mxCell id="K92P9nOB-8vSl3jlvbO0-11" value="" style="endArrow=none;html=1;rounded=0;entryX=0;entryY=0.5;entryDx=0;entryDy=0;exitX=1;exitY=0.5;exitDx=0;exitDy=0;" edge="1" parent="1" source="K92P9nOB-8vSl3jlvbO0-3" target="K92P9nOB-8vSl3jlvbO0-4">
          <mxGeometry width="50" height="50" relative="1" as="geometry">
            <mxPoint x="320" y="270" as="sourcePoint" />
            <mxPoint x="370" y="220" as="targetPoint" />
          </mxGeometry>
        </mxCell>
        <mxCell id="K92P9nOB-8vSl3jlvbO0-12" value="&lt;pre style=&quot;font-family: &amp;#34;jetbrains mono&amp;#34; , monospace ; font-size: 9.8pt&quot;&gt;&lt;div style=&quot;text-align: justify&quot;&gt;&lt;ul&gt;&lt;li&gt;&lt;span style=&quot;background-color: rgb(255 , 255 , 255) ; font-size: 9.8pt ; white-space: normal&quot;&gt;&amp;nbsp;String celular;&lt;/span&gt;&lt;/li&gt;&lt;li&gt;&lt;span style=&quot;font-size: 9.8pt ; white-space: normal&quot;&gt;&amp;nbsp;String nroDoc;&lt;/span&gt;&lt;/li&gt;&lt;li&gt;&lt;span style=&quot;font-size: 9.8pt ; white-space: normal&quot;&gt;&amp;nbsp;String Imei;&lt;/span&gt;&lt;/li&gt;&lt;li&gt;&lt;span style=&quot;font-size: 9.8pt ; white-space: normal&quot;&gt;&amp;nbsp;String correo;&lt;/span&gt;&lt;/li&gt;&lt;li&gt;&lt;span style=&quot;font-size: 9.8pt ; white-space: normal&quot;&gt;&amp;nbsp;Double saldo;&amp;nbsp;&lt;/span&gt;&lt;/li&gt;&lt;li&gt;Boolean &lt;span style=&quot;font-size: 9.8pt ; white-space: normal&quot;&gt;asociadoTarjeta&lt;/span&gt;&lt;span style=&quot;font-size: 9.8pt ; white-space: normal&quot;&gt;;&lt;/span&gt;&lt;/li&gt;&lt;li&gt;&lt;font style=&quot;background-color: rgb(255 , 255 , 255)&quot;&gt; String nroTarjeta;&lt;/font&gt;&lt;/li&gt;&lt;/ul&gt;&lt;/div&gt;&lt;/pre&gt;" style="text;html=1;strokeColor=none;fillColor=none;align=center;verticalAlign=middle;whiteSpace=wrap;rounded=0;" vertex="1" parent="1">
          <mxGeometry x="20" y="285" width="170" height="185" as="geometry" />
        </mxCell>
        <mxCell id="K92P9nOB-8vSl3jlvbO0-14" value="&lt;pre style=&quot;font-family: &amp;#34;jetbrains mono&amp;#34; , monospace ; font-size: 9.8pt&quot;&gt;&lt;div style=&quot;text-align: justify&quot;&gt;&lt;span style=&quot;font-size: 9.8pt ; white-space: normal&quot;&gt;&lt;ul&gt;&lt;li&gt;&lt;span style=&quot;font-size: 9.8pt ; white-space: normal&quot;&gt;String celularEmisor;&lt;/span&gt;&lt;/li&gt;&lt;li&gt;&lt;span style=&quot;font-size: 9.8pt ; white-space: normal&quot;&gt;String tipoMov ;&lt;/span&gt;&lt;/li&gt;&lt;li&gt;&lt;span style=&quot;font-size: 9.8pt ; white-space: normal&quot;&gt;String celularDestino;&lt;/span&gt;&lt;/li&gt;&lt;li&gt;&lt;span style=&quot;font-size: 9.8pt ; white-space: normal&quot;&gt;Double monto&lt;/span&gt;&lt;span style=&quot;font-size: 9.8pt ; white-space: normal&quot;&gt;;&lt;/span&gt;&lt;/li&gt;&lt;/ul&gt;&lt;/span&gt;&lt;/div&gt;&lt;/pre&gt;" style="text;html=1;strokeColor=none;fillColor=none;align=center;verticalAlign=middle;whiteSpace=wrap;rounded=0;" vertex="1" parent="1">
          <mxGeometry x="397.5" y="280" width="220" height="185" as="geometry" />
        </mxCell>
      </root>
    </mxGraphModel>
  </diagram>
</mxfile>
